<svg xmlns="http://www.w3.org/2000/svg" xmlns:xlink="http://www.w3.org/1999/xlink" width="720" zoomAndPan="magnify" viewBox="0 0 540 540.000001" height="720" preserveAspectRatio="xMidYMid meet" version="1.0"><defs><clipPath id="3c74c12905"><path d="M 105.265625 367 L 434.65625 367 L 434.65625 539 L 105.265625 539 Z M 105.265625 367 " clip-rule="nonzero"/></clipPath></defs><g clip-path="url(#3c74c12905)"><path fill="#405d7b" d="M 434.644531 482.933594 L 434.644531 517.15625 C 434.644531 517.875 434.609375 518.589844 434.539062 519.300781 C 434.46875 520.015625 434.363281 520.722656 434.222656 521.425781 C 434.082031 522.125 433.910156 522.820312 433.703125 523.507812 C 433.492188 524.191406 433.253906 524.867188 432.976562 525.527344 C 432.703125 526.1875 432.398438 526.835938 432.0625 527.46875 C 431.722656 528.097656 431.355469 528.710938 430.957031 529.308594 C 430.558594 529.902344 430.132812 530.480469 429.679688 531.03125 C 429.226562 531.585938 428.746094 532.117188 428.238281 532.621094 C 427.730469 533.128906 427.203125 533.609375 426.648438 534.0625 C 426.09375 534.519531 425.519531 534.945312 424.925781 535.34375 C 424.328125 535.742188 423.714844 536.109375 423.085938 536.445312 C 422.453125 536.785156 421.804688 537.089844 421.144531 537.363281 C 420.484375 537.636719 419.808594 537.878906 419.125 538.085938 C 418.4375 538.292969 417.746094 538.46875 417.042969 538.609375 C 416.339844 538.746094 415.632812 538.851562 414.917969 538.921875 C 414.207031 538.992188 413.492188 539.027344 412.777344 539.027344 L 127.132812 539.027344 C 126.417969 539.027344 125.703125 538.992188 124.992188 538.921875 C 124.28125 538.851562 123.570312 538.746094 122.871094 538.605469 C 122.167969 538.464844 121.476562 538.292969 120.789062 538.082031 C 120.105469 537.875 119.433594 537.632812 118.769531 537.359375 C 118.109375 537.085938 117.464844 536.777344 116.832031 536.441406 C 116.199219 536.101562 115.585938 535.734375 114.992188 535.335938 C 114.398438 534.9375 113.824219 534.511719 113.269531 534.058594 C 112.71875 533.605469 112.1875 533.125 111.683594 532.617188 C 111.175781 532.109375 110.695312 531.582031 110.242188 531.027344 C 109.789062 530.472656 109.363281 529.898438 108.964844 529.304688 C 108.566406 528.707031 108.199219 528.09375 107.863281 527.464844 C 107.523438 526.832031 107.21875 526.183594 106.945312 525.523438 C 106.671875 524.863281 106.429688 524.1875 106.222656 523.503906 C 106.015625 522.820312 105.84375 522.125 105.703125 521.421875 C 105.5625 520.71875 105.457031 520.011719 105.386719 519.300781 C 105.316406 518.585938 105.28125 517.875 105.28125 517.15625 L 105.28125 482.933594 C 105.28125 419.203125 156.9375 367.535156 220.660156 367.535156 L 319.265625 367.535156 C 382.988281 367.535156 434.644531 419.203125 434.644531 482.933594 Z M 434.644531 482.933594 " fill-opacity="1" fill-rule="nonzero"/></g><path fill="#fdbe91" d="M 271.019531 310.574219 L 271.019531 408.144531 L 270.792969 408.144531 L 264.828125 407.984375 C 236.304688 406.125 213.914062 388.914062 213.664062 367.890625 C 213.773438 367.777344 213.882812 367.660156 213.988281 367.539062 C 232.824219 346.609375 230.628906 302.8125 230.628906 302.8125 Z M 271.019531 310.574219 " fill-opacity="1" fill-rule="nonzero"/><path fill="#fdbe91" d="M 326.261719 367.601562 C 326.214844 388.796875 303.660156 406.179688 274.917969 407.988281 L 270.484375 408.109375 L 269.824219 408.128906 L 269.164062 408.128906 L 269.164062 310.574219 L 269.824219 310.445312 L 309.558594 302.808594 C 309.558594 302.808594 307.359375 346.605469 326.199219 367.535156 Z M 326.261719 367.601562 " fill-opacity="1" fill-rule="nonzero"/><path fill="#000000" d="M 369.335938 214.972656 L 170.589844 214.972656 C 169.3125 214.972656 168.039062 214.910156 166.769531 214.785156 C 165.5 214.660156 164.238281 214.472656 162.984375 214.222656 C 161.734375 213.972656 160.496094 213.664062 159.273438 213.292969 C 158.054688 212.921875 156.851562 212.492188 155.671875 212.003906 C 154.496094 211.515625 153.34375 210.96875 152.214844 210.367188 C 151.089844 209.765625 149.996094 209.109375 148.933594 208.402344 C 147.875 207.691406 146.851562 206.933594 145.863281 206.121094 C 144.875 205.3125 143.933594 204.457031 143.027344 203.554688 C 142.125 202.648438 141.269531 201.707031 140.460938 200.71875 C 139.652344 199.730469 138.890625 198.707031 138.183594 197.644531 C 137.472656 196.585938 136.816406 195.492188 136.214844 194.363281 C 135.613281 193.238281 135.070312 192.085938 134.582031 190.90625 C 134.09375 189.726562 133.664062 188.527344 133.292969 187.304688 C 132.921875 186.082031 132.613281 184.84375 132.363281 183.59375 C 132.113281 182.339844 131.925781 181.078125 131.800781 179.808594 C 131.675781 178.539062 131.613281 177.265625 131.613281 175.988281 L 131.613281 138.394531 C 131.613281 61.96875 193.554688 0.015625 269.960938 0.015625 C 346.371094 0.015625 408.3125 61.96875 408.3125 138.394531 L 408.3125 175.988281 C 408.3125 177.265625 408.25 178.539062 408.125 179.808594 C 408 181.078125 407.8125 182.339844 407.5625 183.59375 C 407.3125 184.84375 407.003906 186.082031 406.632812 187.304688 C 406.261719 188.527344 405.832031 189.726562 405.34375 190.90625 C 404.855469 192.085938 404.3125 193.238281 403.710938 194.363281 C 403.109375 195.492188 402.453125 196.585938 401.742188 197.644531 C 401.035156 198.707031 400.273438 199.730469 399.464844 200.71875 C 398.65625 201.707031 397.796875 202.648438 396.894531 203.554688 C 395.992188 204.457031 395.046875 205.3125 394.0625 206.121094 C 393.074219 206.933594 392.050781 207.691406 390.988281 208.402344 C 389.929688 209.109375 388.835938 209.765625 387.710938 210.367188 C 386.582031 210.96875 385.429688 211.515625 384.25 212.003906 C 383.070312 212.492188 381.871094 212.921875 380.648438 213.292969 C 379.429688 213.664062 378.191406 213.972656 376.941406 214.222656 C 375.6875 214.472656 374.425781 214.660156 373.15625 214.785156 C 371.886719 214.910156 370.613281 214.972656 369.335938 214.972656 Z M 369.335938 214.972656 " fill-opacity="1" fill-rule="nonzero"/><path fill="#fdbe91" d="M 269.960938 321.910156 C 208.851562 321.910156 159.308594 272.355469 159.308594 211.234375 L 159.308594 100.554688 L 380.613281 100.554688 L 380.613281 211.234375 C 380.613281 272.355469 331.074219 321.910156 269.960938 321.910156 Z M 269.960938 321.910156 " fill-opacity="1" fill-rule="nonzero"/><path fill="#000000" d="M 380.613281 163.425781 C 380.613281 163.425781 324.273438 152.492188 308.316406 105.824219 C 308.316406 105.824219 268.800781 200.699219 142.269531 218.523438 C 141.605469 218.617188 140.941406 218.640625 140.277344 218.59375 C 139.609375 218.542969 138.957031 218.425781 138.316406 218.238281 C 137.671875 218.046875 137.058594 217.792969 136.472656 217.472656 C 135.886719 217.152344 135.339844 216.773438 134.835938 216.335938 C 134.332031 215.898438 133.878906 215.410156 133.476562 214.875 C 133.078125 214.339844 132.738281 213.769531 132.460938 213.160156 C 132.179688 212.554688 131.972656 211.921875 131.828125 211.269531 C 131.6875 210.617188 131.613281 209.957031 131.613281 209.289062 L 131.613281 144.265625 L 183.855469 41.058594 L 373.207031 76.171875 L 398.738281 122.984375 Z M 380.613281 163.425781 " fill-opacity="1" fill-rule="nonzero"/><path fill="#fdbe91" d="M 326.261719 367.535156 L 326.261719 367.601562 C 326.214844 388.796875 303.660156 406.179688 274.917969 407.988281 C 273.632812 408.070312 272.335938 408.121094 271.019531 408.136719 L 269.171875 408.136719 C 267.84375 408.125 266.53125 408.078125 265.230469 407.996094 L 264.828125 407.972656 C 236.304688 406.113281 213.914062 388.902344 213.664062 367.878906 C 213.664062 367.765625 213.664062 367.644531 213.664062 367.527344 Z M 326.261719 367.535156 " fill-opacity="1" fill-rule="nonzero"/></svg>